<svg id="Calque_1" data-name="Calque 1" xmlns="http://www.w3.org/2000/svg" xmlns:xlink="http://www.w3.org/1999/xlink" viewBox="0 0 1000 1000"><defs><style>.cls-1{fill:#14011e;}.cls-2{fill:none;stroke-linejoin:round;stroke-width:8px;stroke:url(#Dégradé_sans_nom_63);}.cls-3{opacity:0.5;}.cls-4{fill:url(#Dégradé_sans_nom_29);}.cls-5{fill:url(#Dégradé_sans_nom_47);}.cls-6{fill:url(#Dégradé_sans_nom_57);}.cls-7{fill:url(#Dégradé_sans_nom_53);}.cls-8{fill:url(#Dégradé_sans_nom_55);}.cls-9{fill:url(#Dégradé_sans_nom_57-2);}</style><linearGradient id="Dégradé_sans_nom_63" x1="393.2" y1="500.31" x2="613.41" y2="500.31" gradientUnits="userSpaceOnUse"><stop offset="1" stop-color="#00d4ea"/><stop offset="1" stop-color="#00d5ec"/><stop offset="1" stop-color="#00d8f3"/><stop offset="1" stop-color="#00ddfe"/><stop offset="1" stop-color="#0df"/></linearGradient><linearGradient id="Dégradé_sans_nom_29" x1="-1724.39" y1="-263.37" x2="-1030.07" y2="-263.37" gradientTransform="translate(1779.83 1019.95) rotate(20.81)" gradientUnits="userSpaceOnUse"><stop offset="0" stop-color="#0df" stop-opacity="0"/><stop offset="0.01" stop-color="#0df" stop-opacity="0.09"/><stop offset="0.03" stop-color="#0df" stop-opacity="0.16"/><stop offset="0.05" stop-color="#0df" stop-opacity="0.22"/><stop offset="0.07" stop-color="#0df" stop-opacity="0.25"/><stop offset="0.11" stop-color="#0df" stop-opacity="0.26"/><stop offset="0.18" stop-color="#1cc5fa" stop-opacity="0.34"/><stop offset="0.36" stop-color="#608aef" stop-opacity="0.54"/><stop offset="0.52" stop-color="#9959e5" stop-opacity="0.7"/><stop offset="0.67" stop-color="#c532de" stop-opacity="0.83"/><stop offset="0.81" stop-color="#e517d8" stop-opacity="0.92"/><stop offset="0.92" stop-color="#f806d5" stop-opacity="0.98"/><stop offset="1" stop-color="#ff00d4"/></linearGradient><linearGradient id="Dégradé_sans_nom_47" x1="5374.03" y1="4065.15" x2="6068.36" y2="4065.15" gradientTransform="translate(4317.6 6548.92) rotate(-159.19)" gradientUnits="userSpaceOnUse"><stop offset="0" stop-color="#0df" stop-opacity="0"/><stop offset="0.01" stop-color="#0df" stop-opacity="0.09"/><stop offset="0.03" stop-color="#0df" stop-opacity="0.16"/><stop offset="0.05" stop-color="#0df" stop-opacity="0.22"/><stop offset="0.07" stop-color="#0df" stop-opacity="0.25"/><stop offset="0.11" stop-color="#0df" stop-opacity="0.26"/><stop offset="0.18" stop-color="#1cc5fa" stop-opacity="0.34"/><stop offset="0.35" stop-color="#608aef" stop-opacity="0.54"/><stop offset="0.52" stop-color="#9959e5" stop-opacity="0.7"/><stop offset="0.67" stop-color="#c532de" stop-opacity="0.83"/><stop offset="0.81" stop-color="#e517d8" stop-opacity="0.92"/><stop offset="0.92" stop-color="#f806d5" stop-opacity="0.98"/><stop offset="1" stop-color="#ff00d4"/></linearGradient><linearGradient id="Dégradé_sans_nom_57" x1="232.99" y1="312.22" x2="779.16" y2="312.22" gradientUnits="userSpaceOnUse"><stop offset="0" stop-color="#0df"/><stop offset="0.47" stop-color="#0df"/><stop offset="0.62" stop-color="#00dbfd"/><stop offset="0.7" stop-color="#01d3f5"/><stop offset="0.76" stop-color="#03c5e8"/><stop offset="0.81" stop-color="#06b2d5"/><stop offset="0.86" stop-color="#0999bc"/><stop offset="0.91" stop-color="#0e7a9e"/><stop offset="0.95" stop-color="#13557a"/><stop offset="0.99" stop-color="#192c52"/><stop offset="1" stop-color="#1b1a41"/></linearGradient><linearGradient id="Dégradé_sans_nom_53" x1="252.48" y1="365.98" x2="344.68" y2="525.68" gradientUnits="userSpaceOnUse"><stop offset="0.18" stop-color="#1b1a41"/><stop offset="0.61" stop-color="#0d7ea3"/><stop offset="1" stop-color="#0df"/></linearGradient><linearGradient id="Dégradé_sans_nom_55" x1="3661.14" y1="3802.8" x2="3598.56" y2="3630.87" gradientTransform="translate(4336.71 4266.47) rotate(180)" gradientUnits="userSpaceOnUse"><stop offset="0" stop-color="#0df"/><stop offset="0.39" stop-color="#0d7ea3"/><stop offset="0.82" stop-color="#1b1a41"/></linearGradient><linearGradient id="Dégradé_sans_nom_57-2" x1="-4145.88" y1="9645.89" x2="-3599.72" y2="9645.89" gradientTransform="translate(-3373.07 10322.86) rotate(180)" xlink:href="#Dégradé_sans_nom_57"/></defs><title>sh_logo_rgb_color_knockout</title><rect id="color_BG" data-name="color BG" class="cls-1" width="1000" height="1000"/><g id="color"><path class="cls-2" d="M397.2,382.67V618c0,9.27,9.28,16.78,20.73,16.78h0c11.44,0,20.72-7.51,20.72-16.78V517.58H568V618c0,9.27,9.28,16.78,20.72,16.78h0c11.44,0,20.72-7.51,20.72-16.78V382.67c0-9.27-9.28-16.79-20.72-16.79h0c-11.44,0-20.72,7.52-20.72,16.79v89.05H438.65V382.67c0-9.27-9.28-16.79-20.72-16.79h0C406.48,365.88,397.2,373.4,397.2,382.67Z" transform="translate(-0.5 0.5)"/><g class="cls-3"><path class="cls-4" d="M861.53,536.21c19-173.18-73-340.77-235.09-402.58-91.66-35-189.73-30-276.4,6.42l-.46.14c-2.93,1.26-46.87,13.95-91.29,61.84-1.64,1.76-24.2,31.28-33.12,54.71-11.29,29.67-9.32,39.68-10.24,52.73,20.83-22.66,34.55-40.32,47.68-52.14,28.53-25.7,41.39-30.57,41.39-30.57s15.63-15,60.13-38.74c76.23-32.73,162.8-37.54,243.68-6.7,139,53,256.24,206,243.8,354.36a5,5,0,0,0,1.91,4.46C856.61,542.46,861.09,540.25,861.53,536.21Z" transform="translate(-0.5 0.5)"/></g><g class="cls-3"><path class="cls-5" d="M138.67,464.4c-19,173.18,73,340.77,235.09,402.59,91.66,35,189.73,30,276.4-6.43l.47-.14c2.92-1.25,46.86-13.94,91.28-61.84,1.64-1.76,24.21-31.27,33.12-54.7,11.29-29.68,9.32-39.69,10.24-52.74-20.83,22.66-34.55,40.32-47.68,52.14-28.53,25.7-41.39,30.57-41.39,30.57s-15.63,15-60.13,38.75c-76.23,32.72-162.8,37.53-243.68,6.69-138.95-53-256.24-206-243.8-354.36a5,5,0,0,0-1.91-4.45C143.59,458.15,139.11,460.37,138.67,464.4Z" transform="translate(-0.5 0.5)"/></g><path class="cls-6" d="M778.46,420.26C744.07,287.75,629.69,190.33,493.37,190.19c-77.09-.08-147.74,31-201.23,81.89l-.31.24c-1.79,1.73-30.52,23.32-49.78,70.91C241.34,345,233,373,233,392.66c0,24.95,4.24,31.75,7.2,41.6,9-22.47,14.13-39.27,20.47-51.62,13.78-26.84,21.87-34,21.87-34s7.28-15.4,33.35-45.25c46.86-45.32,109.1-73,177.12-72.95,116.86.12,217,83.68,249.24,196.15.35,1.2,36.92-2.18,36.92-2.18A23.61,23.61,0,0,0,778.46,420.26Z" transform="translate(-0.5 0.5)"/><path class="cls-7" d="M354.13,473.18c-45.18,0-81.93-35.88-81.93-80,0-12.08,3.26-26.54,6.18-34.72.57-1.6,4.15-9.85,4.15-9.85s-8.06,6.85-21.87,34c-6.29,12.37-11.37,29.5-20.49,51.76,17.19,45.16,61.78,77.43,114,77.43h0l13.83.41.12-38.75-13.95-.31Z" transform="translate(-0.5 0.5)"/><path class="cls-8" d="M651.77,516.43c45.18,0,81.93,35.88,81.93,80,0,12.08-3.26,26.55-6.18,34.72-.57,1.61-4.15,9.85-4.15,9.85s8.06-6.85,21.87-34c6.29-12.37,11.37-29.5,20.49-51.75-17.19-45.17-61.78-77.44-114-77.44h0l-13.83-.41-.12,38.75,13.95.31Z" transform="translate(-0.5 0.5)"/><path class="cls-9" d="M227.34,568.93C261.72,701.45,376.1,798.86,512.43,799c77.09.08,147.73-31,201.23-81.9l.3-.23c1.8-1.74,30.53-23.33,49.79-70.91.71-1.75,9-29.73,9-49.43,0-24.95-4.23-31.75-7.2-41.6-9,22.46-14.12,39.27-20.46,51.61-13.79,26.85-21.87,34-21.87,34S716,656,689.92,685.81c-46.86,45.33-109.11,73-177.12,73-116.86-.12-216.95-83.68-249.25-196.16-.34-1.19-36.91,2.19-36.91,2.19A21.6,21.6,0,0,0,227.34,568.93Z" transform="translate(-0.5 0.5)"/></g></svg>